<svg height='4rem' width='auto'  fill="#fa533d" xmlns="http://www.w3.org/2000/svg" xmlns:xlink="http://www.w3.org/1999/xlink" version="1.1" x="0px" y="0px" viewBox="0 0 100 100" enable-background="new 0 0 100 100" xml:space="preserve"><g><path d="M71.362,17.421c0.14-1.227-0.467-2.404-1.547-3c-4.802-2.647-11.118-4.046-18.265-4.046c-4.933,0-10.004,0.664-15.099,1.97   c0.448-0.657,0.614-1.501,0.38-2.325C36.494,8.831,35.394,8,34.158,8c-0.256,0-0.511,0.036-0.759,0.106   c-0.714,0.202-1.307,0.671-1.669,1.319c-0.362,0.648-0.45,1.399-0.247,2.113c0.23,0.811,0.813,1.454,1.553,1.783   C20.753,17.184,10.437,24.451,5.856,32.556c-0.536,0.948-0.53,2.075,0.018,3.013c0.546,0.936,1.55,1.518,2.619,1.518   c0.282,0,0.565-0.04,0.842-0.118L69.17,20.003C70.361,19.665,71.221,18.652,71.362,17.421z M68.353,17.119L8.516,34.085   c-0.013,0.004-0.02,0.004-0.023,0.005c-0.013-0.006-0.034-0.032-0.027-0.058c4.425-7.829,14.83-14.864,27.153-18.358   c5.382-1.526,10.742-2.3,15.93-2.3c6.643,0,12.458,1.27,16.832,3.679C68.387,17.067,68.382,17.101,68.353,17.119z"></path><path d="M87.779,76.311V46.009c1.665-0.592,2.998-2.26,2.998-4.225v-0.333c0-2.458-1.958-4.291-4.415-4.291h-63.61   c-2.458,0-4.585,1.833-4.585,4.291v0.333c0,1.964,1.332,3.633,3.331,4.225v30.301c0,4.5,3.504,8.147,8.004,8.147h50.11   C84.111,84.458,87.779,80.81,87.779,76.311z M87.779,42.03c0,0.806-0.653,1.459-1.459,1.459H22.623   c-0.806,0-1.459-0.653-1.459-1.459v-0.412c0-0.806,0.653-1.459,1.459-1.459h63.696c0.806,0,1.459,0.653,1.459,1.459V42.03z    M84.781,76.311c0,2.847-2.323,5.15-5.17,5.15h-50.11c-2.847,0-5.006-2.303-5.006-5.15V46.154h60.287V76.311z"></path><path d="M74.122,88.455H15.168c-0.828,0-1.499,0.671-1.499,1.499s0.671,1.499,1.499,1.499h58.954c0.828,0,1.499-0.671,1.499-1.499   S74.95,88.455,74.122,88.455z"></path><path d="M93.108,88.455H82.449c-0.828,0-1.499,0.671-1.499,1.499s0.671,1.499,1.499,1.499h10.658c0.828,0,1.499-0.671,1.499-1.499   S93.936,88.455,93.108,88.455z"></path><path d="M82.171,20.616c0.429,0,0.855-0.183,1.151-0.538l2.114-2.532c0.531-0.635,0.446-1.581-0.19-2.111   c-0.635-0.531-1.58-0.446-2.111,0.19l-2.114,2.532c-0.531,0.635-0.446,1.58,0.19,2.111C81.491,20.502,81.832,20.616,82.171,20.616z   "></path><path d="M85.211,24.368c0.275,0.491,0.784,0.768,1.31,0.768c0.248,0,0.499-0.061,0.73-0.191l4.155-2.324   c0.723-0.404,0.981-1.317,0.577-2.04c-0.404-0.723-1.318-0.981-2.04-0.577l-4.155,2.324C85.065,22.732,84.807,23.646,85.211,24.368   z"></path></g></svg>