<?xml version="1.0" encoding="UTF-8" standalone="no"?>
<!-- Generator: Adobe Illustrator 19.0.0, SVG Export Plug-In . SVG Version: 6.00 Build 0)  -->

<svg
   xmlns:dc="http://purl.org/dc/elements/1.1/"
   xmlns:cc="http://creativecommons.org/ns#"
   xmlns:rdf="http://www.w3.org/1999/02/22-rdf-syntax-ns#"
   xmlns:svg="http://www.w3.org/2000/svg"
   xmlns="http://www.w3.org/2000/svg"
   xmlns:sodipodi="http://sodipodi.sourceforge.net/DTD/sodipodi-0.dtd"
   xmlns:inkscape="http://www.inkscape.org/namespaces/inkscape"
   height="2rem"
   width="auto"
   fill="blue"
   version="1.1"
   id="Layer_1"
   x="0px"
   y="0px"
   viewBox="0 0 64 64"
   enable-background="new 0 0 64 64"
   xml:space="preserve"
   sodipodi:docname="unbookmarked.svg"
   inkscape:version="0.92.2 5c3e80d, 2017-08-06"><metadata
     id="metadata3819"><rdf:RDF><cc:Work
         rdf:about=""><dc:format>image/svg+xml</dc:format><dc:type
           rdf:resource="http://purl.org/dc/dcmitype/StillImage" /><dc:title></dc:title></cc:Work></rdf:RDF></metadata><defs
     id="defs3817" /><sodipodi:namedview
     pagecolor="#ffffff"
     bordercolor="#666666"
     borderopacity="1"
     objecttolerance="10"
     gridtolerance="10"
     guidetolerance="10"
     inkscape:pageopacity="0"
     inkscape:pageshadow="2"
     inkscape:window-width="1440"
     inkscape:window-height="851"
     id="namedview3815"
     showgrid="false"
     inkscape:zoom="10.53125"
     inkscape:cx="25.920182"
     inkscape:cy="36.571427"
     inkscape:window-x="0"
     inkscape:window-y="1"
     inkscape:window-maximized="1"
     inkscape:current-layer="layer1" /><g
     inkscape:groupmode="layer"
     id="layer1"
     inkscape:label="Layer 1"><path
       style="fill:none;fill-opacity:1"
       id="use3986"
       d="M 45,0 H 19 C 16.790899,0 15,1.7859 15,3.9890001 V 63.823503 C 15,63.943298 15.0523,64 15.1511,64 c 1.7183,0 17.516399,-17.1297 17.516399,-17.1297 0,0 14.606,17.1297 16.192902,17.1297 C 48.951599,64 49,63.943199 49,63.823502 V 3.9890001 C 49,1.7859 47.209202,0 45,0 Z"
       inkscape:connector-curvature="0"
       sodipodi:nodetypes="ssssscssss" /></g><g
     id="Bookmark"><path
       d="M22,9.0098c-0.5468006,0-0.9902,0.4433002-0.9902,0.9902v28c0,0.5469017,0.4433994,0.9902,0.9902,0.9902   c0.5468998,0,0.9902992-0.4432983,0.9902992-0.9902V10C22.9902992,9.4531002,22.5468998,9.0098,22,9.0098z"
       id="path3779" /><path
       d="M45,0H19c-2.2091007,0-4,1.7859-4,3.9890001v59.8345032C15,63.9432983,15.0523005,64,15.1511002,64   C16.8694,64,32.6674995,46.8703003,32.6674995,46.8703003S47.2734985,64,48.8604012,64C48.9515991,64,49,63.9431992,49,63.8235016   V3.9890001C49,1.7859,47.2092018,0,45,0z M47.0028,59.8488998c-3.0844994-3.1352997-8.2319984-8.8991013-12.8156013-14.274498   l-1.4611969-1.7136002l-1.526701,1.6553993c-5.1358013,5.5685997-10.9078999,11.5346985-14.2020016,14.5918007V3.9890001   c0-1.0983,0.8984013-1.9918001,2.0027008-1.9918001h26c1.1043015,0,2.0028,0.8935001,2.0028,1.9918001V59.8488998z"
       id="path3781" /></g><g
     id="g3784" /><g
     id="g3786" /><g
     id="g3788" /><g
     id="g3790" /><g
     id="g3792" /><g
     id="g3794" /><g
     id="g3796" /><g
     id="g3798" /><g
     id="g3800" /><g
     id="g3802" /><g
     id="g3804" /><g
     id="g3806" /><g
     id="g3808" /><g
     id="g3810" /><g
     id="g3812" /></svg>